<mxfile host="app.diagrams.net" agent="Mozilla/5.0 (Windows NT 10.0; Win64; x64) AppleWebKit/537.36 (KHTML, like Gecko) Chrome/131.0.0.0 Safari/537.36 Edg/131.0.0.0" version="25.0.3">
  <diagram id="R2lEEEUBdFMjLlhIrx00" name="Page-1">
    <mxGraphModel dx="1501" dy="795" grid="1" gridSize="10" guides="1" tooltips="1" connect="1" arrows="1" fold="1" page="1" pageScale="1" pageWidth="850" pageHeight="1100" math="0" shadow="0" extFonts="Permanent Marker^https://fonts.googleapis.com/css?family=Permanent+Marker">
      <root>
        <mxCell id="0" />
        <mxCell id="1" parent="0" />
        <mxCell id="Co2wqrZ6DGSmuQEqvH11-27" value="회원(User)" style="swimlane;childLayout=stackLayout;horizontal=1;startSize=50;horizontalStack=0;rounded=1;fontSize=14;fontStyle=0;strokeWidth=2;resizeParent=0;resizeLast=1;shadow=0;dashed=0;align=center;arcSize=4;whiteSpace=wrap;html=1;" vertex="1" parent="1">
          <mxGeometry x="40" y="70" width="160" height="130" as="geometry" />
        </mxCell>
        <mxCell id="Co2wqrZ6DGSmuQEqvH11-29" value="회원ID (PK)" style="text;html=1;align=center;verticalAlign=middle;resizable=0;points=[];autosize=1;strokeColor=none;fillColor=none;" vertex="1" parent="1">
          <mxGeometry x="40" y="118" width="90" height="30" as="geometry" />
        </mxCell>
        <mxCell id="Co2wqrZ6DGSmuQEqvH11-36" value="가입일" style="text;html=1;align=center;verticalAlign=middle;resizable=0;points=[];autosize=1;strokeColor=none;fillColor=none;" vertex="1" parent="1">
          <mxGeometry x="40" y="143" width="60" height="30" as="geometry" />
        </mxCell>
        <mxCell id="Co2wqrZ6DGSmuQEqvH11-38" value="상품 (Product)" style="swimlane;childLayout=stackLayout;horizontal=1;startSize=50;horizontalStack=0;rounded=1;fontSize=14;fontStyle=0;strokeWidth=2;resizeParent=0;resizeLast=1;shadow=0;dashed=0;align=center;arcSize=4;whiteSpace=wrap;html=1;" vertex="1" parent="1">
          <mxGeometry x="520" y="34.5" width="160" height="201" as="geometry" />
        </mxCell>
        <mxCell id="Co2wqrZ6DGSmuQEqvH11-39" value="프로필 이미지" style="text;html=1;align=center;verticalAlign=middle;resizable=0;points=[];autosize=1;strokeColor=none;fillColor=none;" vertex="1" parent="1">
          <mxGeometry x="40" y="170" width="100" height="30" as="geometry" />
        </mxCell>
        <mxCell id="Co2wqrZ6DGSmuQEqvH11-40" value="상품ID (PK)" style="text;html=1;align=center;verticalAlign=middle;resizable=0;points=[];autosize=1;strokeColor=none;fillColor=none;" vertex="1" parent="1">
          <mxGeometry x="520" y="84.5" width="90" height="30" as="geometry" />
        </mxCell>
        <mxCell id="Co2wqrZ6DGSmuQEqvH11-42" value="제목" style="text;html=1;align=center;verticalAlign=middle;resizable=0;points=[];autosize=1;strokeColor=none;fillColor=none;" vertex="1" parent="1">
          <mxGeometry x="520" y="110.5" width="50" height="30" as="geometry" />
        </mxCell>
        <mxCell id="Co2wqrZ6DGSmuQEqvH11-43" value="이미지" style="text;html=1;align=center;verticalAlign=middle;resizable=0;points=[];autosize=1;strokeColor=none;fillColor=none;" vertex="1" parent="1">
          <mxGeometry x="520" y="132.5" width="60" height="30" as="geometry" />
        </mxCell>
        <mxCell id="Co2wqrZ6DGSmuQEqvH11-44" value="등록일" style="text;html=1;align=center;verticalAlign=middle;resizable=0;points=[];autosize=1;strokeColor=none;fillColor=none;" vertex="1" parent="1">
          <mxGeometry x="520" y="154.5" width="60" height="30" as="geometry" />
        </mxCell>
        <mxCell id="Co2wqrZ6DGSmuQEqvH11-46" value="조회수" style="text;html=1;align=center;verticalAlign=middle;resizable=0;points=[];autosize=1;strokeColor=none;fillColor=none;" vertex="1" parent="1">
          <mxGeometry x="520" y="175.5" width="60" height="30" as="geometry" />
        </mxCell>
        <mxCell id="Co2wqrZ6DGSmuQEqvH11-47" value="찜수" style="text;html=1;align=center;verticalAlign=middle;resizable=0;points=[];autosize=1;strokeColor=none;fillColor=none;" vertex="1" parent="1">
          <mxGeometry x="520" y="204.5" width="50" height="30" as="geometry" />
        </mxCell>
        <mxCell id="Co2wqrZ6DGSmuQEqvH11-48" value="해시태그 (HashTag)" style="swimlane;childLayout=stackLayout;horizontal=1;startSize=50;horizontalStack=0;rounded=1;fontSize=14;fontStyle=0;strokeWidth=2;resizeParent=0;resizeLast=1;shadow=0;dashed=0;align=center;arcSize=4;whiteSpace=wrap;html=1;" vertex="1" parent="1">
          <mxGeometry x="485" y="470" width="160" height="120" as="geometry" />
        </mxCell>
        <mxCell id="Co2wqrZ6DGSmuQEqvH11-49" value="해시태그ID (PK)" style="text;html=1;align=center;verticalAlign=middle;resizable=0;points=[];autosize=1;strokeColor=none;fillColor=none;" vertex="1" parent="1">
          <mxGeometry x="485" y="525" width="110" height="30" as="geometry" />
        </mxCell>
        <mxCell id="Co2wqrZ6DGSmuQEqvH11-50" value="해시태그 이름" style="text;html=1;align=center;verticalAlign=middle;resizable=0;points=[];autosize=1;strokeColor=none;fillColor=none;" vertex="1" parent="1">
          <mxGeometry x="485" y="555" width="100" height="30" as="geometry" />
        </mxCell>
        <mxCell id="Co2wqrZ6DGSmuQEqvH11-70" value="팔로우 / 팔로워 (N:M)" style="text;html=1;align=center;verticalAlign=middle;resizable=0;points=[];autosize=1;strokeColor=none;fillColor=none;" vertex="1" parent="1">
          <mxGeometry x="300" y="124.5" width="140" height="30" as="geometry" />
        </mxCell>
        <mxCell id="Co2wqrZ6DGSmuQEqvH11-72" value="상품 (1:N)" style="text;html=1;align=center;verticalAlign=middle;resizable=0;points=[];autosize=1;strokeColor=none;fillColor=none;" vertex="1" parent="1">
          <mxGeometry x="595" y="320" width="80" height="30" as="geometry" />
        </mxCell>
        <mxCell id="Co2wqrZ6DGSmuQEqvH11-73" value="" style="edgeStyle=entityRelationEdgeStyle;fontSize=12;html=1;endArrow=ERmandOne;startArrow=ERmandOne;rounded=0;entryX=1;entryY=0.5;entryDx=0;entryDy=0;exitX=-0.035;exitY=0.473;exitDx=0;exitDy=0;exitPerimeter=0;" edge="1" parent="1" source="Co2wqrZ6DGSmuQEqvH11-40" target="Co2wqrZ6DGSmuQEqvH11-27">
          <mxGeometry width="100" height="100" relative="1" as="geometry">
            <mxPoint x="55" y="290" as="sourcePoint" />
            <mxPoint x="155" y="190" as="targetPoint" />
          </mxGeometry>
        </mxCell>
        <mxCell id="Co2wqrZ6DGSmuQEqvH11-77" value="" style="edgeStyle=entityRelationEdgeStyle;fontSize=12;html=1;endArrow=ERmandOne;startArrow=ERmandOne;rounded=0;entryX=0.5;entryY=1;entryDx=0;entryDy=0;exitX=0.5;exitY=0;exitDx=0;exitDy=0;" edge="1" parent="1" source="Co2wqrZ6DGSmuQEqvH11-48" target="Co2wqrZ6DGSmuQEqvH11-38">
          <mxGeometry width="100" height="100" relative="1" as="geometry">
            <mxPoint x="500" y="390" as="sourcePoint" />
            <mxPoint x="600" y="290" as="targetPoint" />
          </mxGeometry>
        </mxCell>
      </root>
    </mxGraphModel>
  </diagram>
</mxfile>
